<svg width="192" height="28" viewBox="0 0 192 28" fill="none" xmlns="http://www.w3.org/2000/svg">
<g id="logo-landit">
<path id="Vector" d="M114.042 6.65182H111.938V26.3501H114.042V6.65182Z" fill="#231815"/>
<path id="Vector_2" d="M15.343 26.3826H0.514549V0.145441H2.65497V24.4776H15.343V26.3826Z" fill="#231815"/>
<path id="Vector_3" d="M70.4152 27.8545L56.2247 10.4879V26.3045H54.1927V5.14083L68.2748 22.5074V6.49225H70.4152V27.8545Z" fill="#231815"/>
<path id="Vector_4" d="M91.392 26.4836C91.3821 26.4836 91.3755 26.4836 91.369 26.4836H84.2014V10.8982H86.3418V24.5785H91.3821C91.461 24.5785 94.7193 24.5558 96.942 22.3642C98.3722 20.9541 99.0988 18.9221 99.0988 16.3267V16.2551C99.0988 13.5587 98.3558 11.4746 96.8861 10.0678C94.6602 7.9316 91.4446 8.0065 91.4117 8.0065H84.1586V6.10148H91.3788C91.5038 6.09497 95.3802 5.9875 98.2078 8.68384C100.075 10.4651 101.022 13.0117 101.022 16.2551V16.3267C101.022 19.4562 100.098 21.9473 98.2801 23.7286C95.538 26.4184 91.7536 26.4836 91.392 26.4836Z" fill="#231815"/>
<g id="Group">
<path id="Vector_5" d="M33.4362 5.38181L33.2784 5.71396H33.5941L33.4362 5.38181Z" fill="#231815"/>
<path id="Vector_6" d="M33.2784 5.71396L23.4772 26.3501H25.6012L33.4362 9.8529L41.2713 26.3501H43.3953L33.5941 5.71396H33.2784Z" fill="#231815"/>
</g>
<g id="Group_2">
<g id="Group_3">
<g id="Group_4">
<path id="Vector_7" d="M161.132 13.8941H159.895V26.0439H161.132V13.8941Z" fill="#231815"/>
</g>
<g id="Group_5">
<path id="Vector_8" d="M174.586 26.0439H173.382V21.3547C173.382 20.1563 173.086 19.2836 172.501 18.7593C171.88 18.2024 171.031 18.0885 170.426 18.0885C168.549 18.1178 167.471 19.1663 167.471 20.9704V26.0439H166.267V17.1278H167.471V17.9549C168.276 17.2255 169.463 16.8998 170.436 16.9292C171.574 16.9292 172.524 17.232 173.251 17.8344C174.138 18.5769 174.586 19.7623 174.586 21.3579V26.0439Z" fill="#231815"/>
</g>
<g id="Group_6">
<path id="Vector_9" d="M183.183 26.4608C180.494 26.4608 178.465 24.4646 178.459 21.8171C178.459 21.8138 178.459 21.8106 178.459 21.8106C178.459 21.8073 178.459 21.8041 178.459 21.8041C178.465 19.1468 180.494 17.1473 183.177 17.1473C185.252 17.1473 187.004 18.3652 187.642 20.254L187.813 20.7555H186.524L186.435 20.5015C185.814 18.7463 184.101 18.2936 183.197 18.3099C182.161 18.3229 181.474 18.5932 180.665 19.3064C180.057 19.8534 179.659 20.8369 179.659 21.8073C179.659 23.8003 181.171 25.3047 183.174 25.3047C184.923 25.2917 186.08 24.2008 186.412 23.1978L186.498 22.9373H187.796L187.622 23.442C186.994 25.2657 185.291 26.425 183.183 26.4608Z" fill="#231815"/>
</g>
</g>
<path id="Vector_10" d="M191.505 24.4483H189.947V25.9918H191.505V24.4483Z" fill="#231815"/>
</g>
<path id="Vector_11" d="M137.12 0.145441H135.016V10.5595H137.12V0.145441Z" fill="#231815"/>
<path id="Vector_12" d="M122.906 12.1813V14.083H135.016V26.3761H137.12V14.083H149.049V12.1813H122.906Z" fill="#231815"/>
</g>
</svg>
